<svg xmlns="http://www.w3.org/2000/svg" width="32" height="32" viewBox="0 0 32 32" fill="none">
  <rect width="32" height="32" rx="8" fill="#2563eb"/>
  <g transform="translate(6,6)">
    <path d="M2 4h4c2 0 3.5 1.5 3.5 3.5S8 11 6 11H2V4zm0 5h3.5c0.8 0 1.5-0.7 1.5-1.5S6.3 6 5.5 6H2v3z" fill="white"/>
    <path d="M11 4h4c1.1 0 2 0.9 2 2 0 0.6-0.3 1.1-0.7 1.4 0.4 0.3 0.7 0.8 0.7 1.4 0 1.1-0.9 2-2 2h-4V4zm1.5 2.5h2c0.3 0 0.5-0.2 0.5-0.5s-0.2-0.5-0.5-0.5h-2v1zm0 2.5h2.5c0.3 0 0.5-0.2 0.5-0.5s-0.2-0.5-0.5-0.5h-2.5v1z" fill="white"/>
  </g>
  <circle cx="26" cy="6" r="3" fill="#10b981"/>
</svg>