<svg xmlns="http://www.w3.org/2000/svg" width="40" height="40" viewBox="0 0 40 40" fill="none">
  <rect width="40" height="40" rx="12" fill="url(#gradient)" stroke="#1e40af" stroke-width="1"/>
  <defs>
    <linearGradient id="gradient" x1="0%" y1="0%" x2="100%" y2="100%">
      <stop offset="0%" style="stop-color:#3b82f6;stop-opacity:1" />
      <stop offset="100%" style="stop-color:#1e40af;stop-opacity:1" />
    </linearGradient>
  </defs>
  <g transform="translate(8,8)">
    <path d="M2 6h5c2 0 3.5 1.5 3.5 3.5S9 13 7 13H2V6zm0 5h4.5c0.8 0 1.5-0.7 1.5-1.5S7.3 8 6.5 8H2v3z" fill="white"/>
    <path d="M13 6h5c1.1 0 2 0.9 2 2 0 0.6-0.3 1.1-0.7 1.4 0.4 0.3 0.7 0.8 0.7 1.4 0 1.1-0.9 2-2 2h-5V6zm1.5 2.5h3c0.3 0 0.5-0.2 0.5-0.5s-0.2-0.5-0.5-0.5h-3v1zm0 2.5h3.5c0.3 0 0.5-0.2 0.5-0.5s-0.2-0.5-0.5-0.5h-3.5v1z" fill="white"/>
  </g>
  <g transform="translate(28,4)">
    <circle cx="6" cy="6" r="4" fill="#10b981"/>
    <path d="M4 6l1.5 1.5L8 4.5" stroke="white" stroke-width="1.5" stroke-linecap="round" stroke-linejoin="round"/>
  </g>
</svg>